<svg width="1200" height="420" viewBox="0 0 1200 420" fill="none" xmlns="http://www.w3.org/2000/svg" role="img" aria-label="Luca Miniello AI Command Center">
  <defs>
    <linearGradient id="bg" x1="0" y1="0" x2="1200" y2="420" gradientUnits="userSpaceOnUse">
      <stop offset="0" stop-color="#030712"/>
      <stop offset="0.45" stop-color="#07142C"/>
      <stop offset="1" stop-color="#120A2A"/>
    </linearGradient>
    <radialGradient id="glow1" cx="0" cy="0" r="1" gradientUnits="userSpaceOnUse" gradientTransform="translate(242 155) rotate(42) scale(360 190)">
      <stop stop-color="#00F5FF" stop-opacity="0.55"/>
      <stop offset="1" stop-color="#00F5FF" stop-opacity="0"/>
    </radialGradient>
    <radialGradient id="glow2" cx="0" cy="0" r="1" gradientUnits="userSpaceOnUse" gradientTransform="translate(954 98) rotate(122) scale(350 210)">
      <stop stop-color="#A855F7" stop-opacity="0.52"/>
      <stop offset="1" stop-color="#A855F7" stop-opacity="0"/>
    </radialGradient>
    <linearGradient id="stroke" x1="106" y1="61" x2="1096" y2="355" gradientUnits="userSpaceOnUse">
      <stop stop-color="#00F5FF"/>
      <stop offset="0.49" stop-color="#7C3AED"/>
      <stop offset="1" stop-color="#FF7A18"/>
    </linearGradient>
    <filter id="blur" x="-40%" y="-40%" width="180%" height="180%">
      <feGaussianBlur stdDeviation="8" result="b"/>
      <feColorMatrix in="b" type="matrix" values="1 0 0 0 0  0 1 0 0 0.9  0 0 1 0 1  0 0 0 0.55 0"/>
      <feBlend in="SourceGraphic" mode="screen"/>
    </filter>
    <style>
      .mono{font-family:'JetBrains Mono','SFMono-Regular','Consolas','Liberation Mono',monospace}
      .sans{font-family:'Inter','Segoe UI',Arial,sans-serif}
      .pulse{animation:pulse 2.6s ease-in-out infinite}
      .float{animation:float 5.5s ease-in-out infinite}
      .dash{stroke-dasharray:8 14; animation:dash 14s linear infinite}
      .scan{animation:scan 4.5s ease-in-out infinite}
      @keyframes pulse{0%,100%{opacity:.45}50%{opacity:1}}
      @keyframes float{0%,100%{transform:translateY(0)}50%{transform:translateY(-9px)}}
      @keyframes dash{to{stroke-dashoffset:-220}}
      @keyframes scan{0%{transform:translateX(-240px);opacity:0}20%,80%{opacity:.75}100%{transform:translateX(1160px);opacity:0}}
    </style>
  </defs>
  <rect width="1200" height="420" rx="34" fill="url(#bg)"/>
  <rect width="1200" height="420" rx="34" fill="url(#glow1)"/>
  <rect width="1200" height="420" rx="34" fill="url(#glow2)"/>
  <path d="M38 330 C240 180, 374 448, 560 250 S880 35, 1163 162" stroke="#00F5FF" stroke-opacity="0.23" stroke-width="1.2" class="dash"/>
  <path d="M28 93 C229 220, 430 39, 629 132 C824 224, 972 309, 1176 236" stroke="#A855F7" stroke-opacity="0.22" stroke-width="1.2" class="dash"/>
  <g opacity="0.24">
    <path d="M0 350H1200 M0 300H1200 M0 250H1200 M0 200H1200 M0 150H1200 M0 100H1200 M0 50H1200" stroke="#7DD3FC" stroke-width="0.55"/>
    <path d="M75 0V420 M150 0V420 M225 0V420 M300 0V420 M375 0V420 M450 0V420 M525 0V420 M600 0V420 M675 0V420 M750 0V420 M825 0V420 M900 0V420 M975 0V420 M1050 0V420 M1125 0V420" stroke="#7DD3FC" stroke-width="0.55"/>
  </g>
  <rect x="42" y="42" width="1116" height="336" rx="28" fill="#020617" fill-opacity="0.42" stroke="url(#stroke)" stroke-width="2"/>
  <rect class="scan" x="40" y="44" width="210" height="332" rx="22" fill="url(#stroke)" opacity="0.16"/>

  <g class="float">
    <circle cx="991" cy="122" r="74" fill="#031525" fill-opacity="0.7" stroke="#00F5FF" stroke-opacity="0.5"/>
    <circle cx="991" cy="122" r="46" fill="none" stroke="#A855F7" stroke-width="2" stroke-dasharray="8 10"/>
    <circle cx="991" cy="122" r="15" fill="#00F5FF" filter="url(#blur)"/>
    <path d="M991 122 L1039 89" stroke="#00F5FF" stroke-width="2" stroke-linecap="round">
      <animateTransform attributeName="transform" attributeType="XML" type="rotate" from="0 991 122" to="360 991 122" dur="7s" repeatCount="indefinite"/>
    </path>
  </g>

  <text x="82" y="96" class="mono" font-size="16" fill="#67E8F9" letter-spacing="4">AI PROFILE OS // START FROM ZERO</text>
  <text x="82" y="165" class="sans" font-size="60" fill="#FFFFFF" font-weight="800">LUCA MINIELLO</text>
  <text x="84" y="213" class="sans" font-size="28" fill="#D8B4FE" font-weight="700">Founder &amp; CEO · Trend Architect · AI Builder</text>
  <text x="84" y="257" class="mono" font-size="18" fill="#A7F3D0">building signal engines, AI workflows and market acceleration systems</text>
  <g transform="translate(84 294)">
    <rect width="166" height="42" rx="21" fill="#00F5FF" fill-opacity="0.13" stroke="#00F5FF"/>
    <text x="22" y="27" class="mono" font-size="13" fill="#E0F2FE">SENSE SIGNALS</text>
    <rect x="184" width="178" height="42" rx="21" fill="#A855F7" fill-opacity="0.13" stroke="#A855F7"/>
    <text x="206" y="27" class="mono" font-size="13" fill="#F3E8FF">PREDICT TRENDS</text>
    <rect x="380" width="190" height="42" rx="21" fill="#FF7A18" fill-opacity="0.13" stroke="#FF7A18"/>
    <text x="402" y="27" class="mono" font-size="13" fill="#FFEDD5">DEPLOY SYSTEMS</text>
  </g>
  <g opacity="0.95">
    <circle class="pulse" cx="753" cy="87" r="5" fill="#00F5FF"/>
    <circle class="pulse" cx="806" cy="302" r="4" fill="#A855F7" style="animation-delay:.4s"/>
    <circle class="pulse" cx="1083" cy="283" r="5" fill="#FF7A18" style="animation-delay:.7s"/>
    <circle class="pulse" cx="1070" cy="78" r="3" fill="#22C55E" style="animation-delay:1.2s"/>
  </g>
</svg>
